<svg height="170" viewBox="-10 -10 170 170" width="170" xmlns="http://www.w3.org/2000/svg">
<rect fill="#ff1596" height="170" width="170" x="-10" y="-10"/>
<g class="layer" data-layer="root">
<g data-object="root#3" style="fill: white;transform-box: fill-box;">
<path d="M100,0 L100,0 L100,50 L50,0 L100,50 L0,100 z"/>
</g>
<g data-object="root#2" style="stroke: #000000; fill: transparent;transform-box: fill-box;">
<path d="M100,50 Q100,100,150,100"/>
</g>
<g data-object="root#6" style="stroke: #000000; fill: transparent;transform-box: fill-box;">
<path d="M0,50 Q0,100,50,100"/>
</g>
<g data-object="root#5" style="stroke: #000000; fill: transparent;transform-box: fill-box;">
<path d="M50,0 Q50,100,150,100"/>
</g>
<g data-object="root#4" style="fill: white;transform-box: fill-box;">
<path d="M0,0 L50,100 L0,0 L100,0 z"/>
</g>
<g data-object="root#0" style="stroke: #000000; fill: transparent;transform-box: fill-box;">
<line stroke-width="2" x1="100" x2="100" y1="100" y2="100"/>
</g>
<g data-object="root#7" style="stroke: #000000; fill: transparent;transform-box: fill-box;">
<line stroke-width="2" x1="0" x2="100" y1="0" y2="50"/>
</g>
<g data-object="root#1" style="stroke: #000000; fill: transparent;transform-box: fill-box;">
<path d="M50,50 Q50,100,100,100"/>
</g>
</g>
<g class="layer" data-layer="qrbg">
<g data-object="qrbg" style="fill: #ff1596;transform-box: fill-box;">
<rect height="50" width="50" x="100" y="0"/>
</g>
</g>
<g class="layer" data-layer="qr">
<g data-object="qr" style="transform-box: fill-box;">
<image height="50" href="c36GvHr4Sl-qr.svg" width="50" x="100" y="0"/>
</g>
</g>
<defs>
<pattern height="1.42" id="pattern-49.160686deg-gray-0.71-0.5" patternTransform="rotate(4.1606865)" patternUnits="userSpaceOnUse" viewBox="0,0,0.71,0.71" width="1.42">
<polygon fill="#616e70" points="0,0 0.355,0 0,0.355"/>
<polygon fill="#616e70" points="0,0.71 0.71,0 0.71,0.355 0.355,0.71"/>
</pattern>
<pattern height="1.9799999" id="pattern-60.208252deg-gray-0.98999995-0.5" patternTransform="rotate(15.208252)" patternUnits="userSpaceOnUse" viewBox="0,0,0.98999995,0.98999995" width="1.9799999">
<polygon fill="#616e70" points="0,0 0.49499997,0 0,0.49499997"/>
<polygon fill="#616e70" points="0,0.98999995 0.98999995,0 0.98999995,0.49499997 0.49499997,0.98999995"/>
</pattern>
</defs>
</svg>
