<svg height="170" viewBox="-10 -10 170 170" width="170" xmlns="http://www.w3.org/2000/svg">
<rect fill="#d4140e" height="170" width="170" x="-10" y="-10"/>
<g class="layer" data-layer="root">
<g data-object="root#3" style="stroke: #000000; fill: transparent;transform-box: fill-box;">
<path d="M100,100 Q100,150,150,150"/>
</g>
<g data-object="root#2" style="stroke: #000000; fill: transparent;transform-box: fill-box;">
<line stroke-width="2" x1="0" x2="0" y1="100" y2="100"/>
</g>
<g data-object="root#7" style="fill: #FFFFFF;transform-box: fill-box;">
<circle cx="75" cy="25" r="25"/>
</g>
<g data-object="root#0" style="fill: #FFFFFF;transform-box: fill-box;">
<circle cx="0" cy="100" r="2"/>
</g>
<g data-object="root#4" style="fill: white;transform-box: fill-box;">
<circle cx="50" cy="100" r="5"/>
</g>
<g data-object="root#6" style="stroke: #000000; fill: transparent;transform-box: fill-box;">
<line stroke-width="2" x1="100" x2="50" y1="0" y2="50"/>
</g>
<g data-object="root#8" style="fill: url(#pattern-301.62024deg-cyan-0.66999996-0.5);transform-box: fill-box;">
<path d="M50,100 L50,50 L100,100 L50,50 L0,50 z"/>
</g>
</g>
<g class="layer" data-layer="qrbg">
<g data-object="qrbg" style="fill: #d4140e;transform-box: fill-box;">
<rect height="50" width="50" x="100" y="0"/>
</g>
</g>
<g class="layer" data-layer="qr">
<g data-object="qr" style="transform-box: fill-box;">
<image height="50" href="HiAhZO1a1v-qr.svg" width="50" x="100" y="0"/>
</g>
</g>
<defs>
<pattern height="1.3399999" id="pattern-301.62024deg-cyan-0.66999996-0.5" patternTransform="rotate(256.6202) scale(2)" patternUnits="userSpaceOnUse" viewBox="0,0,0.66999996,0.66999996" width="1.3399999">
<polygon fill="black" points="0,0 0.33499998,0 0,0.33499998"/>
<polygon fill="black" points="0,0.66999996 0.66999996,0 0.66999996,0.33499998 0.33499998,0.66999996"/>
</pattern>
</defs>
</svg>
