<svg height="170" viewBox="-10 -10 170 170" width="170" xmlns="http://www.w3.org/2000/svg">
<rect fill="#32bfd1" height="170" width="170" x="-10" y="-10"/>
<g class="layer" data-layer="root">
<g data-object="root#4" style="stroke: #000000; fill: transparent;transform-box: fill-box;">
<path d="M0,0 Q100,0,100,100"/>
</g>
<g data-object="root#3" style="fill: url(#pattern-129.4376deg-purple-0.94-0.5);transform-box: fill-box;">
<circle cx="50" cy="0" r="5"/>
</g>
<g data-object="root#7" style="fill: #ff1596;transform-box: fill-box;">
<circle cx="50" cy="50" r="2"/>
</g>
<g data-object="root#9" style="stroke: #000000; fill: transparent;transform-box: fill-box;">
<path d="M0,100 Q50,100,50,50"/>
</g>
<g data-object="root#2" style="stroke: #000000; fill: transparent;transform-box: fill-box;">
<line stroke-width="2" x1="0" x2="0" y1="100" y2="0"/>
</g>
<g data-object="root#11" style="stroke: #000000; fill: transparent;transform-box: fill-box;">
<path d="M0,100 Q50,100,50,50"/>
</g>
<g data-object="root#6" style="stroke: #000000; fill: transparent;transform-box: fill-box;">
<path d="M100,100 Q100,150,50,150"/>
</g>
<g data-object="root#0" style="fill: #616e70;transform-box: fill-box;">
<circle cx="25" cy="125" r="25"/>
</g>
<g data-object="root#1" style="fill: #616e70;transform-box: fill-box;">
<circle cx="25" cy="125" r="25"/>
</g>
<g data-object="root#8" style="stroke: #000000; fill: transparent;transform-box: fill-box;">
<path d="M100,50 Q50,50,50,100"/>
</g>
<g data-object="root#5" style="stroke: #000000; fill: transparent;transform-box: fill-box;">
<path d="M100,50 Q150,50,150,0"/>
</g>
</g>
<g class="layer" data-layer="qrbg">
<g data-object="qrbg" style="fill: #32bfd1;transform-box: fill-box;">
<rect height="50" width="50" x="100" y="100"/>
</g>
</g>
<g class="layer" data-layer="qr">
<g data-object="qr" style="transform-box: fill-box;">
<image height="50" href="iVn_sprYci-qr.svg" width="50" x="100" y="100"/>
</g>
</g>
<defs>
<pattern height="1.88" id="pattern-129.4376deg-purple-0.94-0.5" patternTransform="rotate(84.43761)" patternUnits="userSpaceOnUse" viewBox="0,0,0.94,0.94" width="1.88">
<polygon fill="#F767BB" points="0,0 0.47,0 0,0.47"/>
<polygon fill="#F767BB" points="0,0.94 0.94,0 0.94,0.47 0.47,0.94"/>
</pattern>
</defs>
</svg>