<svg height="170" viewBox="-10 -10 170 170" width="170" xmlns="http://www.w3.org/2000/svg">
<rect fill="#cf5300" height="170" width="170" x="-10" y="-10"/>
<g class="layer" data-layer="root">
<g data-object="root#0" style="stroke: #000000; fill: transparent;transform-box: fill-box;">
<line stroke-width="2" x1="100" x2="0" y1="50" y2="50"/>
</g>
<g data-object="root#2" style="fill: #32bfd1;transform-box: fill-box;">
<circle cx="0" cy="100" r="2"/>
</g>
<g data-object="root#6" style="stroke: #000000; fill: transparent;transform-box: fill-box;">
<line stroke-width="2" x1="50" x2="0" y1="0" y2="100"/>
</g>
<g data-object="root#8" style="fill: url(#pattern-306.37766deg-blue-0.29999998-0.5);transform-box: fill-box;">
<circle cx="50" cy="100" r="5"/>
</g>
<g data-object="root#3" style="stroke: #000000; fill: transparent;transform-box: fill-box;">
<line stroke-width="2" x1="0" x2="50" y1="100" y2="100"/>
</g>
<g data-object="root#10" style="stroke: #000000; fill: transparent;transform-box: fill-box;">
<path d="M50,50 Q0,50,0,100"/>
</g>
<g data-object="root#1" style="fill: url(#pattern-213.32762deg-blue-0.97999996-0.5);transform-box: fill-box;">
<path d="M0,0 L100,0 L100,50 L50,100 L0,0 L50,50 L100,0 z"/>
</g>
<g data-object="root#5" style="fill: #32bfd1;transform-box: fill-box;">
<circle cx="50" cy="100" r="2"/>
</g>
<g data-object="root#7" style="stroke: #000000; fill: transparent;transform-box: fill-box;">
<path d="M50,100 Q50,150,100,150"/>
</g>
<g data-object="root#11" style="stroke: #000000; fill: transparent;transform-box: fill-box;">
<path d="M0,100 Q50,100,50,50"/>
</g>
<g data-object="root#4" style="stroke: #000000; fill: transparent;transform-box: fill-box;">
<path d="M50,0 Q50,50,100,50"/>
</g>
<g data-object="root#9" style="stroke: #000000; fill: transparent;transform-box: fill-box;">
<path d="M0,100 Q50,100,50,150"/>
</g>
</g>
<g class="layer" data-layer="qrbg">
<g data-object="qrbg" style="fill: #cf5300;transform-box: fill-box;">
<rect height="50" width="50" x="100" y="0"/>
</g>
</g>
<g class="layer" data-layer="qr">
<g data-object="qr" style="transform-box: fill-box;">
<image height="50" href="Rvr9_XUiti-qr.svg" width="50" x="100" y="0"/>
</g>
</g>
<defs>
<pattern height="0.59999996" id="pattern-306.37766deg-blue-0.29999998-0.5" patternTransform="rotate(261.37766)" patternUnits="userSpaceOnUse" viewBox="0,0,0.29999998,0.29999998" width="0.59999996">
<polygon fill="#0992ed" points="0,0 0.14999999,0 0,0.14999999"/>
<polygon fill="#0992ed" points="0,0.29999998 0.29999998,0 0.29999998,0.14999999 0.14999999,0.29999998"/>
</pattern>
<pattern height="1.9599999" id="pattern-213.32762deg-blue-0.97999996-0.5" patternTransform="rotate(168.32762)" patternUnits="userSpaceOnUse" viewBox="0,0,0.97999996,0.97999996" width="1.9599999">
<polygon fill="#0992ed" points="0,0 0.48999998,0 0,0.48999998"/>
<polygon fill="#0992ed" points="0,0.97999996 0.97999996,0 0.97999996,0.48999998 0.48999998,0.97999996"/>
</pattern>
</defs>
</svg>