<svg height="170" viewBox="-10 -10 170 170" width="170" xmlns="http://www.w3.org/2000/svg">
<rect fill="#0992ed" height="170" width="170" x="-10" y="-10"/>
<g class="layer" data-layer="root">
<g data-object="root#3" style="stroke: #000000; fill: transparent;transform-box: fill-box;">
<line stroke-width="2" x1="100" x2="100" y1="100" y2="50"/>
</g>
<g data-object="root#1" style="fill: url(#pattern-341.9034deg-pink-0.28-0.5);transform-box: fill-box;">
<circle cx="50" cy="100" r="5"/>
</g>
<g data-object="root#0" style="stroke: #000000; fill: transparent;transform-box: fill-box;">
<line stroke-width="2" x1="0" x2="100" y1="100" y2="0"/>
</g>
<g data-object="root#5" style="fill: #F5B900;transform-box: fill-box;">
<path d="M0,0 L50,0 L50,0 L50,0 L100,100 z"/>
</g>
<g data-object="root#2" style="fill: url(#pattern-210.90625deg-gray-0.48-0.5);transform-box: fill-box;">
<path d="M100,50 L50,0 L50,50 L100,0 L100,0 L0,100 z"/>
</g>
<g data-object="root#4" style="stroke: #000000; fill: transparent;transform-box: fill-box;">
<line stroke-width="2" x1="100" x2="100" y1="0" y2="0"/>
</g>
<g data-object="root#6" style="fill: #cf5300;transform-box: fill-box;">
<circle cx="50" cy="50" r="2"/>
</g>
</g>
<g class="layer" data-layer="qrbg">
<g data-object="qrbg" style="fill: #0992ed;transform-box: fill-box;">
<rect height="50" width="50" x="0" y="0"/>
</g>
</g>
<g class="layer" data-layer="qr">
<g data-object="qr" style="transform-box: fill-box;">
<image height="50" href="YserMponcU-qr.svg" width="50" x="0" y="0"/>
</g>
</g>
<defs>
<pattern height="0.56" id="pattern-341.9034deg-pink-0.28-0.5" patternTransform="rotate(296.9034)" patternUnits="userSpaceOnUse" viewBox="0,0,0.28,0.28" width="0.56">
<polygon fill="#ff1596" points="0,0 0.14,0 0,0.14"/>
<polygon fill="#ff1596" points="0,0.28 0.28,0 0.28,0.14 0.14,0.28"/>
</pattern>
<pattern height="0.96" id="pattern-210.90625deg-gray-0.48-0.5" patternTransform="rotate(165.90625)" patternUnits="userSpaceOnUse" viewBox="0,0,0.48,0.48" width="0.96">
<polygon fill="#616e70" points="0,0 0.24,0 0,0.24"/>
<polygon fill="#616e70" points="0,0.48 0.48,0 0.48,0.24 0.24,0.48"/>
</pattern>
</defs>
</svg>