<svg height="170" viewBox="-10 -10 170 170" width="170" xmlns="http://www.w3.org/2000/svg">
<rect fill="#2bdb75" height="170" width="170" x="-10" y="-10"/>
<g class="layer" data-layer="root">
<g data-object="root#8" style="fill: #616e70;transform-box: fill-box;">
<circle cx="125" cy="125" r="25"/>
</g>
<g data-object="root#9" style="fill: url(#pattern-285.35385deg-pink-0.90999997-0.5);transform-box: fill-box;">
<circle cx="125" cy="125" r="25"/>
</g>
<g data-object="root#11" style="stroke: #000000; fill: transparent;transform-box: fill-box;">
<path d="M0,0 Q50,0,50,50"/>
</g>
<g data-object="root#4" style="fill: #d4140e;transform-box: fill-box;">
<circle cx="50" cy="50" r="2"/>
</g>
<g data-object="root#10" style="stroke: #000000; fill: transparent;transform-box: fill-box;">
<path d="M50,50 Q100,50,100,0"/>
</g>
<g data-object="root#3" style="fill: url(#pattern-9.371381deg-pink-0.45-0.5);transform-box: fill-box;">
<path d="M50,0 L50,0 L0,0 L100,0 z"/>
</g>
<g data-object="root#1" style="fill: url(#pattern-127.81236deg-gray-0.63-0.5);transform-box: fill-box;">
<circle cx="50" cy="0" r="5"/>
</g>
<g data-object="root#2" style="stroke: #000000; fill: transparent;transform-box: fill-box;">
<path d="M0,0 Q0,50,50,50"/>
</g>
<g data-object="root#5" style="fill: #F767BB;transform-box: fill-box;">
<circle cx="50" cy="0" r="5"/>
</g>
<g data-object="root#6" style="stroke: #000000; fill: transparent;transform-box: fill-box;">
<path d="M50,50 Q50,0,0,0"/>
</g>
<g data-object="root#7" style="fill: url(#pattern-71.98697deg-blue-0.14999999-0.5);transform-box: fill-box;">
<circle cx="25" cy="75" r="25"/>
</g>
<g data-object="root#0" style="stroke: #000000; fill: transparent;transform-box: fill-box;">
<path d="M50,50 Q100,50,100,0"/>
</g>
</g>
<g class="layer" data-layer="qrbg">
<g data-object="qrbg" style="fill: #2bdb75;transform-box: fill-box;">
<rect height="50" width="50" x="0" y="100"/>
</g>
</g>
<g class="layer" data-layer="qr">
<g data-object="qr" style="transform-box: fill-box;">
<image height="50" href="6gtUNmTPdz-qr.svg" width="50" x="0" y="100"/>
</g>
</g>
<defs>
<pattern height="1.8199999" id="pattern-285.35385deg-pink-0.90999997-0.5" patternTransform="rotate(240.35385)" patternUnits="userSpaceOnUse" viewBox="0,0,0.90999997,0.90999997" width="1.8199999">
<polygon fill="#ff1596" points="0,0 0.45499998,0 0,0.45499998"/>
<polygon fill="#ff1596" points="0,0.90999997 0.90999997,0 0.90999997,0.45499998 0.45499998,0.90999997"/>
</pattern>
<pattern height="0.9" id="pattern-9.371381deg-pink-0.45-0.5" patternTransform="rotate(-35.62862)" patternUnits="userSpaceOnUse" viewBox="0,0,0.45,0.45" width="0.9">
<polygon fill="#ff1596" points="0,0 0.225,0 0,0.225"/>
<polygon fill="#ff1596" points="0,0.45 0.45,0 0.45,0.225 0.225,0.45"/>
</pattern>
<pattern height="1.26" id="pattern-127.81236deg-gray-0.63-0.5" patternTransform="rotate(82.81236)" patternUnits="userSpaceOnUse" viewBox="0,0,0.63,0.63" width="1.26">
<polygon fill="#616e70" points="0,0 0.315,0 0,0.315"/>
<polygon fill="#616e70" points="0,0.63 0.63,0 0.63,0.315 0.315,0.63"/>
</pattern>
<pattern height="0.29999998" id="pattern-71.98697deg-blue-0.14999999-0.5" patternTransform="rotate(26.986969)" patternUnits="userSpaceOnUse" viewBox="0,0,0.14999999,0.14999999" width="0.29999998">
<polygon fill="#0992ed" points="0,0 0.074999996,0 0,0.074999996"/>
<polygon fill="#0992ed" points="0,0.14999999 0.14999999,0 0.14999999,0.074999996 0.074999996,0.14999999"/>
</pattern>
</defs>
</svg>