<svg height="170" viewBox="-10 -10 170 170" width="170" xmlns="http://www.w3.org/2000/svg">
<rect fill="#0992ed" height="170" width="170" x="-10" y="-10"/>
<g class="layer" data-layer="root">
<g data-object="root#2" style="fill: #cf5300;transform-box: fill-box;">
<circle cx="100" cy="50" r="5"/>
</g>
<g data-object="root#3" style="stroke: #000000; fill: transparent;transform-box: fill-box;">
<path d="M100,50 Q0,50,0,150"/>
</g>
<g data-object="root#0" style="fill: url(#pattern-192.158deg-cyan-0.59-0.5);transform-box: fill-box;">
<circle cx="50" cy="50" r="5"/>
</g>
<g data-object="root#9" style="stroke: #000000; fill: transparent;transform-box: fill-box;">
<line stroke-width="2" x1="50" x2="100" y1="0" y2="0"/>
</g>
<g data-object="root#4" style="fill: url(#pattern-194.30446deg-gray-0.14-0.5);transform-box: fill-box;">
<circle cx="0" cy="0" r="5"/>
</g>
<g data-object="root#5" style="fill: #F767BB;transform-box: fill-box;">
<circle cx="25" cy="25" r="25"/>
</g>
<g data-object="root#6" style="stroke: #000000; fill: transparent;transform-box: fill-box;">
<path d="M100,100 Q50,100,50,50"/>
</g>
<g data-object="root#8" style="stroke: #000000; fill: transparent;transform-box: fill-box;">
<path d="M100,50 Q100,100,150,100"/>
</g>
<g data-object="root#10" style="stroke: #000000; fill: transparent;transform-box: fill-box;">
<path d="M100,50 Q100,0,50,0"/>
</g>
<g data-object="root#11" style="fill: #d4140e;transform-box: fill-box;">
<circle cx="50" cy="50" r="5"/>
</g>
<g data-object="root#7" style="fill: #682a0d;transform-box: fill-box;">
<path d="M100,50 L50,50 L50,50 L0,50 z"/>
</g>
<g data-object="root#1" style="fill: url(#pattern-22.85744deg-brown-0.07-0.5);transform-box: fill-box;">
<circle cx="100" cy="100" r="5"/>
</g>
</g>
<g class="layer" data-layer="qrbg">
<g data-object="qrbg" style="fill: #0992ed;transform-box: fill-box;">
<rect height="50" width="50" x="0" y="100"/>
</g>
</g>
<g class="layer" data-layer="qr">
<g data-object="qr" style="transform-box: fill-box;">
<image height="50" href="8KJs0XpkU7-qr.svg" width="50" x="0" y="100"/>
</g>
</g>
<defs>
<pattern height="1.18" id="pattern-192.158deg-cyan-0.59-0.5" patternTransform="rotate(147.158)" patternUnits="userSpaceOnUse" viewBox="0,0,0.59,0.59" width="1.18">
<polygon fill="#32bfd1" points="0,0 0.295,0 0,0.295"/>
<polygon fill="#32bfd1" points="0,0.59 0.59,0 0.59,0.295 0.295,0.59"/>
</pattern>
<pattern height="0.28" id="pattern-194.30446deg-gray-0.14-0.5" patternTransform="rotate(149.30446)" patternUnits="userSpaceOnUse" viewBox="0,0,0.14,0.14" width="0.28">
<polygon fill="#616e70" points="0,0 0.07,0 0,0.07"/>
<polygon fill="#616e70" points="0,0.14 0.14,0 0.14,0.07 0.07,0.14"/>
</pattern>
<pattern height="0.14" id="pattern-22.85744deg-brown-0.07-0.5" patternTransform="rotate(-22.14256)" patternUnits="userSpaceOnUse" viewBox="0,0,0.07,0.07" width="0.14">
<polygon fill="#682a0d" points="0,0 0.035,0 0,0.035"/>
<polygon fill="#682a0d" points="0,0.07 0.07,0 0.07,0.035 0.035,0.07"/>
</pattern>
</defs>
</svg>