<svg height="470" viewBox="-10 -10 470 470" width="470" xmlns="http://www.w3.org/2000/svg">
<rect fill="#000000" height="470" width="470" x="-10" y="-10"/>
<g class="layer" data-layer="connections">
<line data-object="connections--anon-0" stroke-width="3" x1="250" x2="100" y1="100" y2="150" style="stroke: #4fecec; fill: transparent;"/>
<line data-object="connections--anon-1" stroke-width="3" x1="100" x2="0" y1="250" y2="250" style="stroke: #4fecec; fill: transparent;"/>
<line data-object="connections--anon-10" stroke-width="3" x1="300" x2="350" y1="250" y2="200" style="stroke: #4fecec; fill: transparent;"/>
<line data-object="connections--anon-2" stroke-width="3" x1="300" x2="400" y1="300" y2="150" style="stroke: #4fecec; fill: transparent;"/>
<line data-object="connections--anon-3" stroke-width="3" x1="0" x2="0" y1="150" y2="250" style="stroke: #4fecec; fill: transparent;"/>
<line data-object="connections--anon-4" stroke-width="3" x1="300" x2="250" y1="350" y2="400" style="stroke: #4fecec; fill: transparent;"/>
<line data-object="connections--anon-5" stroke-width="3" x1="300" x2="400" y1="150" y2="150" style="stroke: #4fecec; fill: transparent;"/>
<line data-object="connections--anon-6" stroke-width="3" x1="250" x2="400" y1="400" y2="300" style="stroke: #4fecec; fill: transparent;"/>
<line data-object="connections--anon-7" stroke-width="3" x1="300" x2="400" y1="400" y2="350" style="stroke: #4fecec; fill: transparent;"/>
<line data-object="connections--anon-8" stroke-width="3" x1="400" x2="400" y1="350" y2="300" style="stroke: #4fecec; fill: transparent;"/>
<line data-object="connections--anon-9" stroke-width="3" x1="400" x2="400" y1="400" y2="250" style="stroke: #4fecec; fill: transparent;"/>
</g><g class="layer" data-layer="dices">
<circle cx="200" cy="200" data-object="dices--anon-0" r="7" style="fill: #ffffff;"/>
<circle cx="150" cy="0" data-object="dices--anon-1" r="7" style="fill: #ffffff;"/>
<circle cx="400" cy="250" data-object="dices--anon-10" r="7" style="fill: #ffffff;"/>
<circle cx="400" cy="150" data-object="dices--anon-11" r="7" style="fill: #ffffff;"/>
<circle cx="150" cy="300" data-object="dices--anon-12" r="7" style="fill: #ffffff;"/>
<circle cx="200" cy="350" data-object="dices--anon-13" r="7" style="fill: #ffffff;"/>
<circle cx="250" cy="400" data-object="dices--anon-14" r="7" style="fill: #ffffff;"/>
<circle cx="300" cy="300" data-object="dices--anon-15" r="7" style="fill: #ffffff;"/>
<circle cx="300" cy="350" data-object="dices--anon-16" r="7" style="fill: #ffffff;"/>
<circle cx="300" cy="400" data-object="dices--anon-17" r="7" style="fill: #ffffff;"/>
<circle cx="400" cy="400" data-object="dices--anon-18" r="7" style="fill: #ffffff;"/>
<circle cx="400" cy="350" data-object="dices--anon-19" r="7" style="fill: #ffffff;"/>
<circle cx="250" cy="100" data-object="dices--anon-2" r="7" style="fill: #ffffff;"/>
<circle cx="400" cy="300" data-object="dices--anon-20" r="7" style="fill: #ffffff;"/>
<circle cx="0" cy="150" data-object="dices--anon-3" r="7" style="fill: #ffffff;"/>
<circle cx="0" cy="250" data-object="dices--anon-4" r="7" style="fill: #ffffff;"/>
<circle cx="100" cy="250" data-object="dices--anon-5" r="7" style="fill: #ffffff;"/>
<circle cx="100" cy="150" data-object="dices--anon-6" r="7" style="fill: #ffffff;"/>
<circle cx="300" cy="150" data-object="dices--anon-7" r="7" style="fill: #ffffff;"/>
<circle cx="300" cy="250" data-object="dices--anon-8" r="7" style="fill: #ffffff;"/>
<circle cx="350" cy="200" data-object="dices--anon-9" r="7" style="fill: #ffffff;"/>
</g><g class="layer" data-layer="root"/>
<defs />
</svg>