<svg height="470" viewBox="-10 -10 820 470" width="820" xmlns="http://www.w3.org/2000/svg">
<rect fill="#000000" height="470" width="820" x="-10" y="-10"/>
<g class="layer" data-layer="dices_bg">
<line data-object="dices_bg--anon-0" stroke-width="0.5" x1="300" x2="450" y1="150" y2="150" style="stroke: #81a0a8; fill: transparent;"/>
<line data-object="dices_bg--anon-1" stroke-width="0.5" x1="450" x2="450" y1="150" y2="300" style="stroke: #81a0a8; fill: transparent;"/>
<line data-object="dices_bg--anon-10" stroke-width="0.5" x1="450" x2="300" y1="450" y2="450" style="stroke: #81a0a8; fill: transparent;"/>
<line data-object="dices_bg--anon-11" stroke-width="0.5" x1="300" x2="300" y1="450" y2="300" style="stroke: #81a0a8; fill: transparent;"/>
<line data-object="dices_bg--anon-12" stroke-width="0.5" x1="150" x2="300" y1="150" y2="150" style="stroke: #81a0a8; fill: transparent;"/>
<line data-object="dices_bg--anon-13" stroke-width="0.5" x1="300" x2="300" y1="150" y2="300" style="stroke: #81a0a8; fill: transparent;"/>
<line data-object="dices_bg--anon-14" stroke-width="0.5" x1="300" x2="150" y1="300" y2="300" style="stroke: #81a0a8; fill: transparent;"/>
<line data-object="dices_bg--anon-15" stroke-width="0.5" x1="150" x2="150" y1="300" y2="150" style="stroke: #81a0a8; fill: transparent;"/>
<line data-object="dices_bg--anon-16" stroke-width="0.5" x1="450" x2="600" y1="150" y2="150" style="stroke: #81a0a8; fill: transparent;"/>
<line data-object="dices_bg--anon-17" stroke-width="0.5" x1="600" x2="600" y1="150" y2="300" style="stroke: #81a0a8; fill: transparent;"/>
<line data-object="dices_bg--anon-18" stroke-width="0.5" x1="600" x2="450" y1="300" y2="300" style="stroke: #81a0a8; fill: transparent;"/>
<line data-object="dices_bg--anon-19" stroke-width="0.5" x1="450" x2="450" y1="300" y2="150" style="stroke: #81a0a8; fill: transparent;"/>
<line data-object="dices_bg--anon-2" stroke-width="0.5" x1="450" x2="300" y1="300" y2="300" style="stroke: #81a0a8; fill: transparent;"/>
<line data-object="dices_bg--anon-20" stroke-width="0.5" x1="450" x2="600" y1="300" y2="300" style="stroke: #81a0a8; fill: transparent;"/>
<line data-object="dices_bg--anon-21" stroke-width="0.5" x1="600" x2="600" y1="300" y2="450" style="stroke: #81a0a8; fill: transparent;"/>
<line data-object="dices_bg--anon-22" stroke-width="0.5" x1="600" x2="450" y1="450" y2="450" style="stroke: #81a0a8; fill: transparent;"/>
<line data-object="dices_bg--anon-23" stroke-width="0.5" x1="450" x2="450" y1="450" y2="300" style="stroke: #81a0a8; fill: transparent;"/>
<line data-object="dices_bg--anon-3" stroke-width="0.5" x1="300" x2="300" y1="300" y2="150" style="stroke: #81a0a8; fill: transparent;"/>
<line data-object="dices_bg--anon-4" stroke-width="0.5" x1="300" x2="450" y1="0" y2="0" style="stroke: #81a0a8; fill: transparent;"/>
<line data-object="dices_bg--anon-5" stroke-width="0.5" x1="450" x2="450" y1="0" y2="150" style="stroke: #81a0a8; fill: transparent;"/>
<line data-object="dices_bg--anon-6" stroke-width="0.5" x1="450" x2="300" y1="150" y2="150" style="stroke: #81a0a8; fill: transparent;"/>
<line data-object="dices_bg--anon-7" stroke-width="0.5" x1="300" x2="300" y1="150" y2="0" style="stroke: #81a0a8; fill: transparent;"/>
<line data-object="dices_bg--anon-8" stroke-width="0.5" x1="300" x2="450" y1="300" y2="300" style="stroke: #81a0a8; fill: transparent;"/>
<line data-object="dices_bg--anon-9" stroke-width="0.5" x1="450" x2="450" y1="300" y2="450" style="stroke: #81a0a8; fill: transparent;"/>
</g><g class="layer" data-layer="connections">
<line data-object="connections--anon-0" stroke-width="3" x1="475" x2="375" y1="325" y2="225" style="stroke: #4fecec; fill: transparent;"/>
<line data-object="connections--anon-1" stroke-width="3" x1="375" x2="325" y1="225" y2="25" style="stroke: #4fecec; fill: transparent;"/>
<line data-object="connections--anon-10" stroke-width="3" x1="575" x2="575" y1="325" y2="375" style="stroke: #4fecec; fill: transparent;"/>
<line data-object="connections--anon-11" stroke-width="3" x1="575" x2="575" y1="375" y2="425" style="stroke: #4fecec; fill: transparent;"/>
<line data-object="connections--anon-12" stroke-width="3" x1="375" x2="325" y1="375" y2="325" style="stroke: #4fecec; fill: transparent;"/>
<line data-object="connections--anon-13" stroke-width="3" x1="325" x2="375" y1="325" y2="375" style="stroke: #4fecec; fill: transparent;"/>
<line data-object="connections--anon-14" stroke-width="3" x1="375" x2="425" y1="375" y2="425" style="stroke: #4fecec; fill: transparent;"/>
<line data-object="connections--anon-15" stroke-width="3" x1="425" x2="175" y1="425" y2="175" style="stroke: #4fecec; fill: transparent;"/>
<line data-object="connections--anon-16" stroke-width="3" x1="175" x2="175" y1="175" y2="275" style="stroke: #4fecec; fill: transparent;"/>
<line data-object="connections--anon-17" stroke-width="3" x1="275" x2="275" y1="175" y2="175" style="stroke: #4fecec; fill: transparent;"/>
<line data-object="connections--anon-18" stroke-width="3" x1="175" x2="275" y1="175" y2="275" style="stroke: #4fecec; fill: transparent;"/>
<line data-object="connections--anon-2" stroke-width="3" x1="325" x2="475" y1="25" y2="175" style="stroke: #4fecec; fill: transparent;"/>
<line data-object="connections--anon-3" stroke-width="3" x1="475" x2="475" y1="175" y2="275" style="stroke: #4fecec; fill: transparent;"/>
<line data-object="connections--anon-4" stroke-width="3" x1="475" x2="525" y1="275" y2="225" style="stroke: #4fecec; fill: transparent;"/>
<line data-object="connections--anon-5" stroke-width="3" x1="525" x2="575" y1="225" y2="175" style="stroke: #4fecec; fill: transparent;"/>
<line data-object="connections--anon-6" stroke-width="3" x1="575" x2="575" y1="175" y2="275" style="stroke: #4fecec; fill: transparent;"/>
<line data-object="connections--anon-7" stroke-width="3" x1="575" x2="475" y1="275" y2="375" style="stroke: #4fecec; fill: transparent;"/>
<line data-object="connections--anon-8" stroke-width="3" x1="475" x2="475" y1="375" y2="425" style="stroke: #4fecec; fill: transparent;"/>
<line data-object="connections--anon-9" stroke-width="3" x1="475" x2="575" y1="425" y2="325" style="stroke: #4fecec; fill: transparent;"/>
</g><g class="layer" data-layer="dices">
<circle cx="375" cy="225" data-object="dices--anon-0" r="7" style="fill: #ffffff;"/>
<circle cx="325" cy="25" data-object="dices--anon-1" r="7" style="fill: #ffffff;"/>
<circle cx="475" cy="175" data-object="dices--anon-10" r="7" style="fill: #ffffff;"/>
<circle cx="475" cy="275" data-object="dices--anon-11" r="7" style="fill: #ffffff;"/>
<circle cx="525" cy="225" data-object="dices--anon-12" r="7" style="fill: #ffffff;"/>
<circle cx="575" cy="275" data-object="dices--anon-13" r="7" style="fill: #ffffff;"/>
<circle cx="575" cy="175" data-object="dices--anon-14" r="7" style="fill: #ffffff;"/>
<circle cx="475" cy="325" data-object="dices--anon-15" r="7" style="fill: #ffffff;"/>
<circle cx="475" cy="375" data-object="dices--anon-16" r="7" style="fill: #ffffff;"/>
<circle cx="475" cy="425" data-object="dices--anon-17" r="7" style="fill: #ffffff;"/>
<circle cx="575" cy="325" data-object="dices--anon-18" r="7" style="fill: #ffffff;"/>
<circle cx="575" cy="375" data-object="dices--anon-19" r="7" style="fill: #ffffff;"/>
<circle cx="425" cy="125" data-object="dices--anon-2" r="7" style="fill: #ffffff;"/>
<circle cx="575" cy="425" data-object="dices--anon-20" r="7" style="fill: #ffffff;"/>
<circle cx="325" cy="325" data-object="dices--anon-3" r="7" style="fill: #ffffff;"/>
<circle cx="375" cy="375" data-object="dices--anon-4" r="7" style="fill: #ffffff;"/>
<circle cx="425" cy="425" data-object="dices--anon-5" r="7" style="fill: #ffffff;"/>
<circle cx="175" cy="175" data-object="dices--anon-6" r="7" style="fill: #ffffff;"/>
<circle cx="175" cy="275" data-object="dices--anon-7" r="7" style="fill: #ffffff;"/>
<circle cx="275" cy="275" data-object="dices--anon-8" r="7" style="fill: #ffffff;"/>
<circle cx="275" cy="175" data-object="dices--anon-9" r="7" style="fill: #ffffff;"/>
</g><g class="layer" data-layer="root">
<text data-object="root--credits text" dominant-baseline="hanging" font-family="Inconsolata" font-size="12pt" text-anchor="start" x="100" y="100" style="fill: #ffffff;">
Postamble / Schedule Hell</text></g><defs />
</svg>